<?xml version="1.0" standalone="no"?><svg xmlns="http://www.w3.org/2000/svg" viewBox="0 0 1440 320"><path fill="#e2edff" fill-opacity="1" d="M0,224L34.3,213.3C68.6,203,137,181,206,186.7C274.3,192,343,224,411,213.3C480,203,549,149,617,133.3C685.7,117,754,139,823,165.3C891.4,192,960,224,1029,202.7C1097.1,181,1166,107,1234,80C1302.9,53,1371,75,1406,85.3L1440,96L1440,0L1405.7,0C1371.4,0,1303,0,1234,0C1165.7,0,1097,0,1029,0C960,0,891,0,823,0C754.3,0,686,0,617,0C548.6,0,480,0,411,0C342.9,0,274,0,206,0C137.1,0,69,0,34,0L0,0Z"></path></svg>